<svg xmlns="http://www.w3.org/2000/svg" width="2157" height="2042" viewBox="0 0 2157 2042">
  <metadata><?xpacket begin="﻿" id="W5M0MpCehiHzreSzNTczkc9d"?>
<x:xmpmeta xmlns:x="adobe:ns:meta/" x:xmptk="Adobe XMP Core 6.0-c002 79.164352, 2020/01/30-15:50:38        ">
   <rdf:RDF xmlns:rdf="http://www.w3.org/1999/02/22-rdf-syntax-ns#">
      <rdf:Description rdf:about=""
            xmlns:xmp="http://ns.adobe.com/xap/1.0/">
         <xmp:CreatorTool>Adobe Photoshop 21.1 (Macintosh)</xmp:CreatorTool>
      </rdf:Description>
   </rdf:RDF>
</x:xmpmeta>
                                                                                                                            
<?xpacket end="w"?></metadata>
<defs>
    <style>
      .cls-1{
        fill: #ffd12d;
      }
      .cls-2 {
        fill: #fff;
      }
      .cls-3{
        fill: #ffd12d;
      }
      .cls-4 {
        fill: #ffd12d;
      }

      .cls-1{
        stroke: #fff;
        stroke-linejoin: round;
        stroke-width: 50px;
      }

      .cls-1 {
        fill-rule: evenodd;
      }

      .cls-4 {
        fill-rule: evenodd;
      }

      .cls-3 {
        stroke: #fff;
        stroke-linejoin: round;
        stroke-width: 50px;
      }
    </style>
  </defs>
  <path id="circle_yellow" data-name="circle yellow" class="cls-1" d="M1157.89,98.406c498.22,0,902.11,398.516,902.11,890.11s-403.89,890.1-902.11,890.1-902.109-398.51-902.109-890.1S659.67,98.406,1157.89,98.406Z"/>
  <ellipse id="circle_bg" data-name="circle bg" class="cls-2" cx="1155.906" cy="987.518" rx="667.594" ry="666.643"/>
  <circle id="circle_1" data-name="circle 1" class="cls-3" cx="1493.66" cy="1690.06" r="271.5"/>
  <circle id="circle_2" data-name="circle 2" class="cls-3" cx="370.719" cy="917.842" r="271.5"/>
  <circle id="circle3" class="cls-3" cx="1592.69" cy="353.719" r="271.5"/>
  <path id="tuerca_1" data-name="tuerca 1" class="cls-4" d="M1118.57,545c66.34,2.607,18.95,79.181,60.88,93.3l45.66,6.085,46.68,13.184,15.22-3.043c21.08-13.422,27.34-54.472,52.76-61.863,14.56-4.234,26.03,8.377,34.5,12.17,35.71,15.99,63.18,44.074,90.31,68.963-0.19,41.363-33.9,47.267-39.58,78.09-1.07,5.832,47.6,89.568,53.78,97.36,18.22,22.971,58.8-11.34,89.29-2.029,15.75,4.808,42.46,112.663,34.5,144.011-8.93,35.209-62.36,14.669-86.24,34.479-2.85,2.36-25.2,93.71-27.4,103.45-7.01,30.96,56.61,44.28,63.92,69.97,4.05,14.2-9.58,30.16-14.2,37.53-18.14,28.9-38.22,69.19-66.97,87.22-26.37,16.53-59.24-42.35-85.23-37.53-20.03,3.72-36.86,25.65-52.77,35.5q-18.765,9.63-37.54,19.27c-32.94,23.55,35.67,90.55-27.4,109.53-21.56,6.48-118.9,28.77-131.91,7.1-14.67-24.46.35-74.03-29.42-83.17-11.83-3.63-99.96-19.48-103.5-18.25-23.607,8.23-27.723,49.04-48.7,60.85-11.9,6.69-25.393,1.96-35.514-4.06-21.813-12.96-90.812-53.58-97.41-76.06-8.605-29.32,43.941-54.49,39.573-82.15-2.357-14.92-15.7-28.82-23.338-40.56s-26.165-49.41-36.528-55.78c-21.565-13.26-56.079,16.58-84.219,6.08-20.784-7.75-27.883-85.63-32.47-113.58-1.9-11.58-2.295-30.2,3.044-37.53,14.692-28.7,79.95-5.26,90.307-40.564,3.033-10.339,20.033-100.462,18.264-104.458-11.342-25.618-58.09-26.418-62.91-58.822-2.607-17.524,46.513-81.671,56.822-95.331l23.338-24.34c31.217-17.61,60.175,43.138,88.277,36.51,9.353-2.206,95.554-61.522,97.41-68.963,6.588-26.422-17.444-52.4-7.1-78.09C1007.1,549.372,1084.29,558.593,1118.57,545Zm23.34,202.832-25.37,2.029-53.78,12.17c-68.737,22.705-121.745,75.663-152.2,136.912-9.265,18.632-20.941,51.395-20.294,73.019,0.766,25.608-5.809,55.768,0,82.148,22.818,103.63,83.1,167.85,176.554,200.8,19.64,6.93,42.24,6.67,64.94,10.14,38.74,5.93,82.12-11.29,109.59-22.31,104.38-41.84,203.8-186.54,142.05-333.656q-46.455-110.663-163.36-151.11C1194.96,749.265,1168.4,751.993,1141.91,747.832Z"/>
</svg>
